<svg width="23" height="22" viewBox="0 0 23 22" fill="none" xmlns="http://www.w3.org/2000/svg">
    <path d="M18.735 13.374v7.602H4.254v-7.719l5.234-4.954 1.945-1.841 7.302 6.912z" stroke="#000" stroke-width="1.5" stroke-linecap="round" stroke-linejoin="round"/>
    <path d="m21.631 11.839-2.34 2.364-7.796-7.876-1.787 1.805L4.9 12.989l-1.201 1.214-2.34-2.364L11.468 1.624l.026.026.025-.026 6.442 6.508 3.67 3.707z" stroke="#000" stroke-width="1.5" stroke-linecap="round" stroke-linejoin="round"/>
    <path d="M15.172 13.925a2.262 2.262 0 0 0-1.615-.683c-.606 0-1.188.245-1.616.683l-.44.448-.44-.448a2.285 2.285 0 0 0-.74-.51 2.246 2.246 0 0 0-2.495.498 2.376 2.376 0 0 0-.011 3.302l.012.012.44.45 3.232 3.299 3.23-3.303.44-.45c.213-.217.38-.474.496-.756a2.372 2.372 0 0 0-.496-2.541l.003-.001z" stroke="#000" stroke-width="1.5" stroke-linecap="round" stroke-linejoin="round"/>
</svg>
