<svg width="278" height="89" viewBox="0 0 278 89" fill="none" xmlns="http://www.w3.org/2000/svg">
    <path d="M63.69 0H49.494a8.415 8.415 0 0 0-5.946 2.47 8.443 8.443 0 0 0-2.468 5.955v2.724H31.015V8.425a8.443 8.443 0 0 0-2.468-5.955A8.415 8.415 0 0 0 22.601 0H8.414a8.415 8.415 0 0 0-5.947 2.47A8.442 8.442 0 0 0 0 8.425V18.95a8.442 8.442 0 0 0 2.467 5.956 8.415 8.415 0 0 0 5.947 2.47h14.193a8.415 8.415 0 0 0 5.947-2.47 8.442 8.442 0 0 0 2.467-5.956v-2.724h10.057v2.724a8.442 8.442 0 0 0 2.467 5.956 8.415 8.415 0 0 0 5.947 2.47h14.196a8.417 8.417 0 0 0 5.946-2.47 8.444 8.444 0 0 0 2.467-5.956V8.425a8.444 8.444 0 0 0-2.467-5.954A8.417 8.417 0 0 0 63.69 0zM25.947 11.149h-6.681a4.536 4.536 0 0 0-5.087-1.807 4.536 4.536 0 0 0-3.21 4.345 4.548 4.548 0 0 0 3.21 4.345 4.53 4.53 0 0 0 5.087-1.807h6.68v2.724a3.356 3.356 0 0 1-.98 2.367 3.345 3.345 0 0 1-2.365.981H8.414a3.345 3.345 0 0 1-2.365-.98 3.356 3.356 0 0 1-.98-2.368V8.425a3.345 3.345 0 0 1 3.346-3.349h14.192c.887 0 1.737.354 2.364.982.628.627.98 1.479.982 2.367l-.006 2.724zm41.086 7.8a3.356 3.356 0 0 1-.98 2.366 3.345 3.345 0 0 1-2.363.982H49.494a3.345 3.345 0 0 1-2.363-.982 3.355 3.355 0 0 1-.98-2.366v-2.724h6.68a4.536 4.536 0 0 0 5.084 1.804 4.546 4.546 0 0 0 0-8.685 4.527 4.527 0 0 0-5.084 1.805h-6.68V8.425a3.356 3.356 0 0 1 .98-2.367 3.345 3.345 0 0 1 2.363-.982H63.69a3.345 3.345 0 0 1 2.363.982c.626.628.979 1.48.98 2.367V18.95zm-5.692 26.446a2.387 2.387 0 0 0-2.387 2.39 9.906 9.906 0 0 1-2.894 7 9.875 9.875 0 0 1-13.976 0 9.906 9.906 0 0 1-2.895-7v-.023c.093-.117.177-.24.252-.37l3.503-6.08 3.504-6.078a3.053 3.053 0 0 0-1.109-4.177 3.04 3.04 0 0 0-1.527-.407H29.796a3.04 3.04 0 0 0-2.645 1.527 3.052 3.052 0 0 0 .008 3.057l3.504 6.079 3.479 6.043a2.377 2.377 0 0 0-.042.44 9.908 9.908 0 0 1-2.965 6.869 9.876 9.876 0 0 1-13.835 0 9.907 9.907 0 0 1-2.965-6.87 2.392 2.392 0 0 0-2.386-2.39 2.385 2.385 0 0 0-2.387 2.39 14.707 14.707 0 0 0 4.301 10.377 14.66 14.66 0 0 0 10.363 4.3c.223 0 .445 0 .666-.016v14.922c0 3.082 1.222 6.038 3.398 8.218a11.594 11.594 0 0 0 16.41 0 11.631 11.631 0 0 0 3.398-8.218V62.437c.325.02.653.035.984.035a14.66 14.66 0 0 0 10.358-4.304 14.707 14.707 0 0 0 4.297-10.374 2.393 2.393 0 0 0-1.478-2.22 2.383 2.383 0 0 0-.918-.179zM43.315 77.37c0 1.814-.72 3.554-2 4.837a6.825 6.825 0 0 1-9.66 0 6.847 6.847 0 0 1-2.001-4.837V61.412a14.71 14.71 0 0 0 4.444-2.797v11.36a2.392 2.392 0 0 0 2.386 2.39 2.384 2.384 0 0 0 2.387-2.39v-11.67a14.68 14.68 0 0 0 4.444 2.971V77.37zM113.785 16.113v7.789c0 6.94-3.742 10.482-11.092 10.482h-7.69v19.402c0 .92-.485 1.416-1.385 1.416h-.9c-.902 0-1.465-.496-1.465-1.416V7.05c0-.922.555-1.416 1.465-1.416h9.975c7.35 0 11.092 3.54 11.092 10.48zm-3.742 1.283c0-5.878-2.148-8.214-7.62-8.214H95.01V30.85h7.413c5.472 0 7.62-2.336 7.62-8.215v-5.239zM139.367 55.203h-16.25c-.897 0-1.446-.497-1.446-1.417V7.05c0-.922.549-1.416 1.446-1.416h16.044c.894 0 1.456.494 1.456 1.416v.642c0 .92-.551 1.487-1.456 1.487h-13.773V28.3h11.636c.897 0 1.456.567 1.456 1.498v.567c0 .922-.551 1.498-1.456 1.498h-11.636v19.832h13.979c.894 0 1.456.567 1.456 1.497v.642c-.011.88-.562 1.37-1.456 1.37zM165.608 7.053v.642c0 .92-.539 1.486-1.423 1.486h-7.454v44.605c0 .92-.539 1.416-1.423 1.416h-.873c-.874 0-1.345-.496-1.345-1.416V9.177h-7.465c-.876 0-1.422-.567-1.422-1.486v-.642c0-.922.538-1.416 1.422-1.416h18.562c.882.004 1.421.498 1.421 1.42zM199.405 53.078v.708c0 .92-.549 1.416-1.439 1.416h-15.137c-.89 0-1.449-.496-1.449-1.416V7.05c0-.922.548-1.416 1.449-1.416h.892c.89 0 1.37.494 1.37 1.416v44.613h12.882c.883 0 1.432.496 1.432 1.416zM208.296 55.203h-.812c-.811 0-1.32-.497-1.32-1.417V7.05c0-.922.5-1.416 1.32-1.416h.812c.811 0 1.248.494 1.248 1.416v46.743c0 .92-.437 1.41-1.248 1.41zM220.811 55.196h-.771c-.913 0-1.483-.496-1.483-1.416V7.05c0-.923.559-1.417 1.483-1.417h1.271c.847 0 1.33.353 1.612 1.132l15.636 39.373V7.05c0-.922.489-1.416 1.402-1.416h.771c.911 0 1.483.494 1.483 1.416v46.737c0 .92-.561 1.416-1.483 1.416h-1.059c-.847 0-1.402-.352-1.612-1.131l-15.846-39.658v39.373c-.002.92-.491 1.41-1.404 1.41zM273.663 55.203h-1.105c-.759 0-1.312-.354-1.587-1.203l-9.734-25.989-6.281 10.55v15.225c0 .92-.484 1.416-1.38 1.416h-.899c-.897 0-1.449-.496-1.449-1.416V7.058c0-.922.552-1.416 1.449-1.416h.899c.896 0 1.38.494 1.38 1.416v25.35l14.772-25.705c.16-.327.407-.6.712-.79.305-.19.656-.286 1.013-.28h1.105c1.105 0 1.587.708.965 1.699l-9.938 16.711 11.181 29.459c.346.999-.069 1.7-1.103 1.7zM93.817 78.105h-.66c-.507 0-.778-.263-.778-.755v-1.093c0-.83-.485-1.131-1.146-1.131-.661 0-1.147.3-1.147 1.13v.906c0 .68.235.99.876 1.34l1.593.867c1.3.717 2.078 1.302 2.078 2.718v1.904c0 2.039-1.301 2.756-3.361 2.756h-.04c-2.057 0-3.359-.7-3.359-2.756v-1.545c0-.492.272-.755.777-.755h.66c.505 0 .776.263.776.755v1.244c0 .812.486 1.17 1.167 1.17s1.165-.358 1.165-1.17v-1.038c0-.678-.204-1.018-.894-1.387l-1.572-.868c-1.322-.735-2.079-1.339-2.079-2.716v-1.735c0-1.963 1.475-2.718 3.341-2.718h.04c1.863 0 3.34.755 3.34 2.718v1.387c0 .509-.273.772-.777.772zM99.615 73.228h.175c2.323 0 3.856.793 3.856 2.795v7.929c0 2.002-1.533 2.795-3.856 2.795h-.175c-2.321 0-3.855-.793-3.855-2.795v-7.93c-.01-2.011 1.534-2.794 3.855-2.794zm.088 11.592c.832 0 1.403-.266 1.403-1.21v-7.248c0-.944-.571-1.207-1.403-1.207-.833 0-1.401.263-1.401 1.207v7.249c0 .943.568 1.209 1.4 1.209zM112.658 81.97v1.982c0 2.04-1.558 2.795-3.921 2.795h-.044c-2.361 0-3.921-.738-3.921-2.795v-7.93c0-1.964 1.56-2.794 3.921-2.794h.044c2.363 0 3.921.83 3.921 2.795v1.66c0 .49-.311.756-.891.756h-.8c-.58 0-.891-.265-.891-.755v-1.322c0-.924-.536-1.207-1.36-1.207-.823 0-1.359.283-1.359 1.207v7.249c0 .926.534 1.209 1.359 1.209.826 0 1.36-.283 1.36-1.21v-1.64c0-.492.311-.756.891-.756h.805c.575 0 .886.264.886.756zM115.999 86.747h-1.049c-.758 0-1.165-.272-1.165-.773V74c0-.501.407-.771 1.165-.771h1.049c.759 0 1.165.27 1.165.77v11.976c.007.501-.406.773-1.165.773zM125.446 86.744h-.744a.818.818 0 0 1-.586-.183.77.77 0 0 1-.273-.533l-.38-2.296h-2.56l-.381 2.296a.738.738 0 0 1-.273.534.807.807 0 0 1-.588.182h-.63c-.54 0-.819-.29-.72-.831l2.3-11.988a.772.772 0 0 1 .292-.521.83.83 0 0 1 .588-.172h1.441a.824.824 0 0 1 .587.171c.165.13.27.317.293.522l2.339 11.988c.116.54-.163.83-.705.83zm-2.279-4.865-.981-6.004-.979 6.004h1.96zM132.937 85.51v.464c0 .501-.269.773-.764.773h-4.105c-.496 0-.764-.272-.764-.773V74c0-.501.268-.771.764-.771h.687c.497 0 .764.27.764.77v10.75h2.654c.493-.011.764.26.764.762zM142.714 84.13a.794.794 0 0 1-.277.475.715.715 0 0 1-.505.16.734.734 0 0 1-.512-.16.818.818 0 0 1-.289-.476l-1.721-5.657v7.502c0 .501-.256.773-.728.773h-.511c-.472 0-.728-.272-.728-.773V74.002c0-.501.256-.77.728-.77h.656a.732.732 0 0 1 .523.153c.151.117.256.29.295.483l2.258 7.22 2.277-7.22a.84.84 0 0 1 .299-.478.753.753 0 0 1 .52-.159h.728c.474 0 .729.27.729.77v11.973c0 .501-.255.773-.729.773h-.573c-.473 0-.729-.272-.729-.773v-7.502l-1.711 5.657zM154.596 86.747h-5.015c-.568 0-.872-.272-.872-.773V74c0-.501.304-.771.872-.771h4.949c.567 0 .872.27.872.77v.426c0 .503-.305.773-.872.773h-3.291v3.707h2.615c.568 0 .872.272.872.773v.426c0 .5-.304.773-.872.773h-2.615v3.9h3.357c.568 0 .872.271.872.772v.426c0 .501-.304.773-.872.773zM163.354 76.085v7.802c0 2.049-1.333 2.86-3.35 2.86h-2.647c-.494 0-.762-.272-.762-.773V74c0-.501.268-.771.762-.771h2.647c2.017 0 3.35.811 3.35 2.857zm-3.426-.888h-1.124v9.578h1.124c.723 0 1.217-.27 1.217-1.235v-7.108c0-.965-.502-1.235-1.217-1.235zM167.084 86.747h-.7c-.505 0-.776-.272-.776-.773V74c0-.501.271-.771.776-.771h.7c.503 0 .777.27.777.77v11.976c0 .501-.274.773-.777.773zM176.133 86.744h-.739a.818.818 0 0 1-.586-.183.771.771 0 0 1-.193-.24.738.738 0 0 1-.081-.293l-.38-2.296h-2.556l-.38 2.296a.756.756 0 0 1-.275.533.797.797 0 0 1-.586.183h-.63c-.539 0-.82-.29-.72-.831l2.309-11.988a.773.773 0 0 1 .292-.522.827.827 0 0 1 .588-.172h1.44a.826.826 0 0 1 .587.172.77.77 0 0 1 .292.522l2.338 11.988c.101.541-.18.83-.72.83zm-2.277-4.865-.98-6.004-.98 6.004h1.96zM181.38 85.974V74c0-.501.311-.771.89-.771h4.977c.581 0 .892.27.892.77v.426c0 .503-.311.773-.892.773h-3.281v3.805h2.578c.578 0 .892.27.892.772v.424c0 .503-.314.773-.892.773h-2.578v5.003c0 .501-.311.773-.892.773h-.804c-.583 0-.89-.272-.89-.773zM191.444 73.228h.15c1.991 0 3.305.793 3.305 2.795v7.929c0 2.002-1.314 2.795-3.305 2.795h-.15c-1.99 0-3.305-.793-3.305-2.795v-7.93c0-2.011 1.315-2.794 3.305-2.794zm.075 11.592c.714 0 1.203-.266 1.203-1.21v-7.248c0-.944-.489-1.207-1.203-1.207-.714 0-1.201.263-1.201 1.207v7.249c0 .943.487 1.209 1.199 1.209h.002zM204.271 86.743h-.747a.971.971 0 0 1-.617-.153.806.806 0 0 1-.346-.486l-1.666-4.748h-1.262v4.615c0 .5-.301.772-.856.772h-.77c-.557 0-.855-.271-.855-.772V73.998c0-.5.298-.77.855-.77h3.016c2.265 0 3.763.81 3.763 2.857v2.412c0 1.294-.6 2.105-1.626 2.51l1.819 4.848c.19.521-.088.888-.708.888zm-4.638-7.32h1.304c.813 0 1.368-.269 1.368-1.234v-1.758c0-.965-.555-1.234-1.368-1.234h-1.304v4.227zM213.578 85.974c0 .501-.294.773-.84.773h-.756c-.545 0-.838-.272-.838-.773v-4.037l-2.668-7.838c-.187-.521.084-.868.692-.868h.821a.907.907 0 0 1 .608.168.773.773 0 0 1 .315.507l1.469 5.6 1.47-5.6c.03-.2.143-.382.315-.507a.908.908 0 0 1 .609-.168h.776c.61 0 .882.347.694.868l-2.667 7.838v4.037zM220.735 73.228h.15c1.99 0 3.305.793 3.305 2.795v7.929c0 2.002-1.315 2.795-3.305 2.795h-.15c-1.991 0-3.305-.793-3.305-2.795v-7.93c0-2.011 1.314-2.794 3.305-2.794zm.075 11.592c.714 0 1.201-.266 1.201-1.21v-7.248c0-.944-.487-1.207-1.201-1.207-.714 0-1.203.263-1.203 1.207v7.249c0 .943.489 1.209 1.203 1.209zM233.202 73.99v9.93c0 2.063-1.306 2.827-3.341 2.827h-.077c-2.036 0-3.341-.746-3.341-2.828v-9.93c0-.495.268-.761.768-.761h.692c.498 0 .768.267.768.762v9.587c0 .954.422 1.223 1.152 1.223s1.151-.269 1.151-1.223V73.99c0-.495.27-.762.769-.762h.691c.494 0 .768.267.768.762zM242.576 86.743h-.748a.97.97 0 0 1-.616-.153.808.808 0 0 1-.347-.486l-1.668-4.748h-1.26v4.615c0 .5-.301.772-.856.772h-.77c-.557 0-.855-.271-.855-.772V73.998c0-.5.298-.77.855-.77h3.014c2.268 0 3.765.81 3.765 2.857v2.412c0 1.294-.599 2.105-1.625 2.51l1.816 4.848c.193.521-.085.888-.705.888zm-4.639-7.32h1.302c.813 0 1.37-.269 1.37-1.234v-1.758c0-.965-.557-1.234-1.37-1.234h-1.302v4.227zM254.607 76.085v2.57c0 2.046-1.326 2.857-3.334 2.857h-1.228v4.462c0 .501-.267.773-.758.773h-.682c-.493 0-.757-.272-.757-.773V74c0-.501.264-.771.757-.771h2.668c2.008 0 3.334.811 3.334 2.857zm-2.186.347c0-.965-.494-1.235-1.213-1.235h-1.153v4.354h1.153c.719 0 1.213-.272 1.213-1.237v-1.882zM261.613 86.747h-5.008c-.567 0-.871-.272-.871-.773V74c0-.501.304-.771.871-.771h4.942c.567 0 .871.27.871.77v.426c0 .503-.304.773-.871.773h-3.277v3.707h2.611c.568 0 .872.272.872.773v.426c0 .5-.304.773-.872.773h-2.611v3.9h3.352c.567 0 .872.271.872.772v.426c-.01.501-.314.773-.881.773zM270.38 73.999v.425c0 .503-.315.773-.902.773h-1.734v10.777c0 .501-.315.773-.902.773h-.811c-.585 0-.902-.272-.902-.773V75.197h-1.734c-.584 0-.901-.27-.901-.773V74c0-.501.317-.771.901-.771h6.083c.587 0 .902.27.902.77zM276.323 78.105h-.661c-.503 0-.777-.263-.777-.755v-1.093c0-.83-.485-1.131-1.144-1.131-.659 0-1.146.3-1.146 1.13v.906c0 .68.232.99.873 1.34l1.593.867c1.301.717 2.078 1.302 2.078 2.718v1.904c0 2.039-1.301 2.756-3.359 2.756h-.039c-2.06 0-3.361-.7-3.361-2.756v-1.545c0-.492.271-.755.777-.755h.661c.503 0 .777.263.777.755v1.244c0 .812.485 1.17 1.164 1.17.68 0 1.165-.358 1.165-1.17v-1.038c0-.678-.204-1.018-.893-1.387l-1.573-.868c-1.32-.735-2.078-1.339-2.078-2.716v-1.735c0-1.963 1.476-2.718 3.341-2.718h.038c1.865 0 3.341.755 3.341 2.718v1.387c0 .509-.271.772-.777.772z" fill="#fff"/>
</svg>
