<svg width="99" height="29" viewBox="0 0 99 29" fill="none" xmlns="http://www.w3.org/2000/svg">
    <path d="M22.751.153h-5.07c-.797 0-1.561.288-2.125.8-.563.512-.88 1.206-.881 1.93v.883h-3.596v-.882c0-.725-.318-1.419-.881-1.93A3.168 3.168 0 0 0 8.074.152H3.006c-.797 0-1.561.288-2.125.8C.318 1.465.001 2.16 0 2.883v3.412c0 .724.318 1.418.881 1.93.564.512 1.328.8 2.125.801h5.07c.797 0 1.56-.289 2.124-.8.564-.513.88-1.207.881-1.932v-.882h3.593v.883c0 .724.318 1.418.881 1.93.564.512 1.328.8 2.125.801h5.07c.797 0 1.561-.289 2.125-.801.563-.512.88-1.206.881-1.93V2.884c-.001-.724-.318-1.418-.881-1.93A3.169 3.169 0 0 0 22.75.153zM9.27 3.766H6.882a1.609 1.609 0 0 0-.802-.565 1.775 1.775 0 0 0-1.015-.02 1.627 1.627 0 0 0-.829.532c-.206.254-.318.56-.318.876 0 .315.112.623.318.876.207.254.497.44.83.532.331.092.687.085 1.014-.02.327-.106.608-.304.802-.565H9.27v.883c0 .287-.127.563-.35.767a1.26 1.26 0 0 1-.845.318H3.006a1.26 1.26 0 0 1-.845-.318 1.04 1.04 0 0 1-.35-.768v-3.41c0-.288.126-.564.35-.768a1.26 1.26 0 0 1 .845-.318h5.07c.317 0 .62.115.844.318.224.204.35.48.35.768l-.001.882zm14.677 2.529c0 .287-.127.563-.35.767a1.26 1.26 0 0 1-.845.318h-5.07a1.26 1.26 0 0 1-.845-.318 1.04 1.04 0 0 1-.35-.768v-.882h2.386c.194.261.476.459.802.564.327.106.683.113 1.015.02.331-.092.622-.278.828-.531.206-.254.318-.56.318-.876 0-.315-.112-.622-.318-.876a1.626 1.626 0 0 0-.828-.532 1.774 1.774 0 0 0-1.015.02 1.608 1.608 0 0 0-.802.565h-2.386v-.882c0-.288.126-.564.35-.768a1.26 1.26 0 0 1 .844-.318h5.071c.317 0 .62.115.844.318.224.204.35.48.35.768v3.41zm-2.034 8.572a.899.899 0 0 0-.602.227.741.741 0 0 0-.25.547c0 .851-.372 1.667-1.034 2.269-.662.602-1.56.94-2.497.94-.936 0-1.834-.338-2.496-.94C14.371 17.308 14 16.492 14 15.64v-.007a.963.963 0 0 0 .09-.12l1.252-1.97 1.251-1.971a.92.92 0 0 0 .148-.495.92.92 0 0 0-.145-.496 1.042 1.042 0 0 0-.399-.363 1.172 1.172 0 0 0-.545-.132h-5.007c-.192 0-.38.045-.546.132a1.043 1.043 0 0 0-.399.363.92.92 0 0 0-.145.496.92.92 0 0 0 .148.495l1.252 1.97 1.242 1.96a.69.69 0 0 0-.015.142c-.019.84-.399 1.638-1.059 2.226a3.723 3.723 0 0 1-2.471.917c-.924 0-1.811-.33-2.471-.917-.66-.588-1.04-1.387-1.06-2.226a.74.74 0 0 0-.249-.548.898.898 0 0 0-.603-.227.898.898 0 0 0-.603.227.74.74 0 0 0-.25.548c.003 1.261.555 2.47 1.537 3.363.982.892 2.314 1.393 3.702 1.394.08 0 .159 0 .238-.006v4.837c0 1 .437 1.957 1.214 2.664.777.706 1.831 1.103 2.93 1.103 1.1 0 2.154-.397 2.932-1.103.777-.707 1.214-1.665 1.214-2.664V20.39c.116.007.233.012.351.012 1.388-.002 2.719-.504 3.7-1.395.982-.892 1.534-2.102 1.535-3.363a.714.714 0 0 0-.064-.298.775.775 0 0 0-.186-.253.863.863 0 0 0-.278-.168.926.926 0 0 0-.328-.059zM15.473 25.23a2.12 2.12 0 0 1-.715 1.568 2.57 2.57 0 0 1-1.725.65 2.57 2.57 0 0 1-1.725-.65 2.12 2.12 0 0 1-.715-1.568v-5.172a5.357 5.357 0 0 0 1.588-.907v3.682c0 .206.09.403.25.548.16.145.376.227.602.227a.898.898 0 0 0 .603-.227.74.74 0 0 0 .25-.548v-3.782c.46.406.997.733 1.587.963v5.216zM40.646 5.375V7.9c0 2.25-1.336 3.397-3.962 3.397h-2.747v6.29c0 .297-.173.458-.495.458h-.321c-.322 0-.524-.16-.524-.459V2.438c0-.3.199-.46.524-.46h3.563c2.626 0 3.962 1.148 3.962 3.397zm-1.336.416c0-1.905-.768-2.662-2.723-2.662H33.94v7.023h2.648c1.955 0 2.723-.757 2.723-2.663V5.791zM49.785 18.045H43.98c-.32 0-.517-.16-.517-.459V2.438c0-.3.197-.46.517-.46h5.731c.32 0 .52.16.52.46v.208c0 .298-.197.482-.52.482h-4.92v6.197h4.157c.32 0 .52.184.52.486v.184c0 .299-.197.485-.52.485h-4.157v6.428h4.994c.32 0 .52.184.52.485v.209c-.004.285-.2.443-.52.443zM59.158 2.439v.208c0 .298-.192.482-.508.482h-2.663v14.457c0 .299-.192.46-.508.46h-.312c-.312 0-.48-.162-.48-.46V3.127H52.02c-.313 0-.508-.183-.508-.482v-.208c0-.298.193-.458.508-.458h6.631c.315 0 .507.161.507.46zM71.232 17.357v.23c0 .297-.196.458-.514.458H65.31c-.318 0-.517-.16-.517-.459V2.438c0-.3.196-.46.517-.46h.319c.318 0 .49.16.49.46v14.46h4.601c.316 0 .512.16.512.459zM74.408 18.045h-.29c-.29 0-.472-.16-.472-.459V2.438c0-.3.179-.46.472-.46h.29c.29 0 .446.16.446.46v15.15c0 .299-.156.457-.446.457zM78.878 18.043h-.275c-.326 0-.53-.16-.53-.459V2.438c0-.3.2-.46.53-.46h.454c.302 0 .475.115.576.367l5.585 12.762V2.437c0-.298.175-.458.501-.458h.276c.325 0 .53.16.53.459v15.148c0 .299-.201.46-.53.46h-.379c-.302 0-.5-.115-.576-.367L79.38 4.824v12.762c0 .299-.176.457-.502.457zM97.758 18.045h-.394c-.272 0-.47-.114-.567-.39l-3.478-8.423-2.243 3.42v4.934c0 .299-.173.46-.493.46h-.321c-.32 0-.518-.162-.518-.46V2.44c0-.298.197-.459.518-.459h.32c.321 0 .494.16.494.46v8.216l5.277-8.332a.65.65 0 0 1 .254-.256.715.715 0 0 1 .362-.09h.395c.394 0 .566.23.344.55l-3.55 5.417 3.994 9.548c.124.324-.024.551-.394.551zM33.513 25.469h-.236c-.18 0-.277-.086-.277-.245v-.354c0-.27-.174-.367-.41-.367s-.41.098-.41.367v.293c0 .22.085.321.313.434l.57.281c.464.233.742.422.742.881v.617c0 .661-.465.894-1.2.894h-.015c-.735 0-1.2-.227-1.2-.893v-.501c0-.16.097-.245.278-.245h.235c.18 0 .278.085.278.245v.403c0 .263.173.38.417.38.243 0 .416-.117.416-.38v-.337c0-.22-.073-.33-.32-.45l-.561-.28c-.472-.239-.743-.434-.743-.88v-.563c0-.636.527-.881 1.194-.881h.014c.666 0 1.193.244 1.193.88v.45c0 .165-.098.25-.278.25zM35.585 23.888h.062c.83 0 1.377.257 1.377.906v2.57c0 .649-.547.906-1.377.906h-.062c-.83 0-1.378-.257-1.378-.906v-2.57c-.003-.652.548-.906 1.378-.906zm.03 3.757c.298 0 .502-.086.502-.392v-2.35c0-.305-.204-.39-.501-.39-.298 0-.5.085-.5.39v2.35c0 .306.202.392.5.392zM40.244 26.721v.643c0 .66-.557.906-1.4.906h-.017c-.843 0-1.4-.24-1.4-.906v-2.57c0-.637.557-.906 1.4-.906h.016c.844 0 1.401.269 1.401.906v.538c0 .159-.111.245-.318.245h-.286c-.208 0-.319-.086-.319-.245v-.428c0-.3-.191-.392-.485-.392s-.486.092-.486.392v2.35c0 .3.19.391.486.391.295 0 .485-.092.485-.392v-.532c0-.16.111-.244.319-.244h.287c.206 0 .317.085.317.244zM41.437 28.27h-.374c-.271 0-.417-.088-.417-.25v-3.882c0-.163.146-.25.417-.25h.374c.271 0 .417.087.417.25v3.881c.002.163-.146.25-.417.25zM44.812 28.269h-.266a.32.32 0 0 1-.21-.06.255.255 0 0 1-.068-.077.225.225 0 0 1-.029-.095l-.135-.745h-.915l-.136.745a.225.225 0 0 1-.029.095.255.255 0 0 1-.069.078.32.32 0 0 1-.21.059h-.224c-.193 0-.293-.094-.258-.27l.822-3.885a.246.246 0 0 1 .104-.17.317.317 0 0 1 .21-.055h.515a.317.317 0 0 1 .21.056.245.245 0 0 1 .104.169l.836 3.885c.041.176-.059.27-.252.27zm-.814-1.577-.35-1.946-.35 1.946h.7zM47.488 27.869v.15c0 .163-.096.25-.273.25h-1.467c-.176 0-.272-.087-.272-.25v-3.881c0-.163.096-.25.272-.25h.246c.178 0 .273.087.273.25v3.483h.948c.176-.003.273.085.273.248zM50.98 27.421a.255.255 0 0 1-.098.154.273.273 0 0 1-.18.053.28.28 0 0 1-.184-.052.263.263 0 0 1-.103-.155l-.615-1.833v2.431c0 .163-.091.25-.26.25h-.182c-.169 0-.26-.087-.26-.25v-3.88c0-.163.091-.25.26-.25h.234a.282.282 0 0 1 .187.05.263.263 0 0 1 .105.156l.807 2.34.813-2.34a.27.27 0 0 1 .107-.154.288.288 0 0 1 .186-.052h.26c.17 0 .26.087.26.25v3.88c0 .163-.09.25-.26.25h-.205c-.169 0-.26-.087-.26-.25v-2.431l-.611 1.833zM55.225 28.27h-1.791c-.203 0-.312-.088-.312-.25v-3.882c0-.163.109-.25.312-.25H55.2c.203 0 .312.087.312.25v.138c0 .163-.109.25-.312.25h-1.175v1.202h.934c.203 0 .312.088.312.25v.138c0 .163-.11.25-.312.25h-.934v1.265h1.199c.203 0 .312.088.312.25v.138c0 .163-.11.25-.312.25zM58.354 24.814v2.529c0 .664-.477.927-1.197.927h-.946c-.176 0-.272-.088-.272-.25v-3.882c0-.163.096-.25.272-.25h.946c.72 0 1.197.263 1.197.926zm-1.224-.288h-.402v3.105h.401c.259 0 .435-.088.435-.4v-2.305c0-.313-.179-.4-.434-.4zM59.686 28.27h-.25c-.18 0-.277-.088-.277-.25v-3.882c0-.163.096-.25.277-.25h.25c.18 0 .277.087.277.25v3.881c0 .163-.097.25-.277.25zM62.919 28.269h-.264a.32.32 0 0 1-.21-.06.255.255 0 0 1-.069-.077.224.224 0 0 1-.029-.095l-.136-.745h-.913l-.135.745a.225.225 0 0 1-.03.095.254.254 0 0 1-.068.077.32.32 0 0 1-.21.06h-.225c-.192 0-.293-.094-.257-.27l.825-3.885a.245.245 0 0 1 .104-.17.317.317 0 0 1 .21-.055h.514a.317.317 0 0 1 .21.056.246.246 0 0 1 .105.169l.835 3.885c.036.176-.065.27-.258.27zm-.814-1.577-.35-1.946-.35 1.946h.7zM64.793 28.02v-3.882c0-.163.111-.25.318-.25h1.777c.208 0 .32.087.32.25v.138c0 .163-.112.25-.32.25h-1.171v1.233h.92c.207 0 .32.088.32.25v.138c0 .163-.113.25-.32.25h-.92v1.622c0 .163-.112.25-.32.25h-.286c-.209 0-.318-.087-.318-.25zM68.388 23.888h.053c.712 0 1.18.257 1.18.906v2.57c0 .649-.468.906-1.18.906h-.053c-.71 0-1.18-.257-1.18-.906v-2.57c0-.652.47-.906 1.18-.906zm.027 3.757c.255 0 .43-.086.43-.392v-2.35c0-.305-.175-.39-.43-.39s-.43.085-.43.39v2.35c0 .306.175.392.429.392zM72.97 28.268h-.267a.374.374 0 0 1-.22-.05.264.264 0 0 1-.124-.157l-.595-1.539h-.45v1.496c0 .162-.108.25-.306.25h-.276c-.198 0-.305-.088-.305-.25v-3.88c0-.163.106-.25.305-.25h1.078c.809 0 1.344.263 1.344.926v.782c0 .42-.214.682-.58.813l.649 1.572c.068.169-.031.287-.253.287zm-1.657-2.372h.466c.29 0 .489-.087.489-.4v-.57c0-.313-.199-.4-.489-.4h-.466v1.37zM76.295 28.02c0 .162-.105.25-.3.25h-.27c-.195 0-.3-.088-.3-.25v-1.31l-.953-2.54c-.067-.169.03-.281.248-.281h.292a.35.35 0 0 1 .218.054c.061.04.102.1.112.165l.525 1.815.525-1.815a.249.249 0 0 1 .113-.165.35.35 0 0 1 .217-.054H77c.219 0 .315.112.249.281l-.953 2.54v1.31zM78.851 23.888h.054c.71 0 1.18.257 1.18.906v2.57c0 .649-.47.906-1.18.906h-.054c-.711 0-1.18-.257-1.18-.906v-2.57c0-.652.469-.906 1.18-.906zm.027 3.757c.255 0 .43-.086.43-.392v-2.35c0-.305-.175-.39-.43-.39s-.43.085-.43.39v2.35c0 .306.175.392.43.392zM83.305 24.135v3.218c0 .67-.467.917-1.194.917h-.027c-.728 0-1.194-.242-1.194-.917v-3.218c0-.16.096-.247.275-.247h.247c.178 0 .274.086.274.247v3.107c0 .31.15.397.412.397.26 0 .41-.087.41-.397v-3.107c0-.16.097-.247.275-.247h.247c.177 0 .275.086.275.247zM86.653 28.268h-.267a.374.374 0 0 1-.22-.05.265.265 0 0 1-.124-.157l-.596-1.539h-.45v1.496c0 .162-.107.25-.305.25h-.276c-.199 0-.305-.088-.305-.25v-3.88c0-.163.106-.25.305-.25h1.077c.81 0 1.345.263 1.345.926v.782c0 .42-.214.682-.58.813l.648 1.572c.07.169-.03.287-.252.287zm-1.657-2.372h.465c.29 0 .49-.087.49-.4v-.57c0-.313-.2-.4-.49-.4h-.465v1.37zM90.951 24.814v.833c0 .663-.473.926-1.19.926h-.44v1.446c0 .163-.095.25-.27.25h-.244c-.176 0-.27-.087-.27-.25v-3.881c0-.163.094-.25.27-.25h.953c.718 0 1.191.263 1.191.926zm-.78.112c0-.313-.177-.4-.434-.4h-.412v1.411h.412c.257 0 .433-.088.433-.4v-.61zM93.454 28.27h-1.789c-.203 0-.311-.088-.311-.25v-3.882c0-.163.108-.25.311-.25h1.765c.203 0 .311.087.311.25v.138c0 .163-.108.25-.31.25H92.26v1.202h.932c.203 0 .312.088.312.25v.138c0 .163-.109.25-.312.25h-.932v1.265h1.197c.203 0 .311.088.311.25v.138c-.003.163-.112.25-.314.25zM96.585 24.138v.138c0 .163-.112.25-.322.25h-.62v3.493c0 .163-.112.25-.321.25h-.29c-.209 0-.322-.087-.322-.25v-3.493h-.62c-.208 0-.322-.087-.322-.25v-.138c0-.163.114-.25.322-.25h2.173c.21 0 .322.087.322.25zM98.709 25.469h-.236c-.18 0-.278-.086-.278-.245v-.354c0-.27-.173-.367-.409-.367-.235 0-.41.098-.41.367v.293c0 .22.084.321.313.434l.569.281c.465.233.742.422.742.881v.617c0 .661-.465.894-1.2.894h-.014c-.736 0-1.2-.227-1.2-.893v-.501c0-.16.096-.245.277-.245h.236c.18 0 .278.085.278.245v.403c0 .263.173.38.416.38.242 0 .416-.117.416-.38v-.337c0-.22-.073-.33-.32-.45l-.561-.28c-.472-.239-.743-.434-.743-.88v-.563c0-.636.528-.881 1.194-.881h.014c.666 0 1.193.244 1.193.88v.45c0 .165-.097.25-.277.25z" fill="#7ED9D0"/>
</svg>
