<svg width="252" height="36" viewBox="0 0 252 36" fill="none" xmlns="http://www.w3.org/2000/svg">
    <rect width="252" height="36" rx="8" fill="#EFEFEF"/>
    <path d="M32.667 17a5.666 5.666 0 1 1-11.332 0 5.666 5.666 0 0 1 11.332 0zM31.007 21.007l3.66 3.66" stroke="#8E8E8E" stroke-width="1.333" stroke-linecap="round" stroke-linejoin="round"/>
    <path d="M55.383 21.125c0-.266-.042-.5-.125-.703a1.338 1.338 0 0 0-.422-.563c-.198-.166-.474-.325-.828-.476a11.552 11.552 0 0 0-1.328-.461 12.23 12.23 0 0 1-1.524-.555 5.318 5.318 0 0 1-1.164-.71 2.806 2.806 0 0 1-.742-.915 2.603 2.603 0 0 1-.258-1.18 2.768 2.768 0 0 1 1.055-2.203c.344-.28.753-.5 1.226-.656a5.049 5.049 0 0 1 1.586-.234c.855 0 1.578.164 2.172.492.6.323 1.055.747 1.367 1.273.313.521.47 1.079.47 1.672h-1.5c0-.427-.092-.804-.274-1.133a1.884 1.884 0 0 0-.828-.78c-.37-.194-.839-.29-1.407-.29-.536 0-.979.08-1.328.242-.349.162-.61.38-.781.657-.167.276-.25.59-.25.945 0 .24.05.458.148.656.105.193.263.373.477.54.219.166.495.32.828.46.339.14.742.276 1.211.406.646.183 1.203.386 1.672.61.469.224.854.476 1.156.758.308.276.534.59.68.945.15.349.226.745.226 1.187 0 .464-.093.883-.28 1.258a2.734 2.734 0 0 1-.806.961 3.885 3.885 0 0 1-1.257.617c-.485.14-1.026.211-1.625.211a5.633 5.633 0 0 1-1.555-.218 4.632 4.632 0 0 1-1.383-.657A3.437 3.437 0 0 1 49 22.203c-.245-.432-.367-.932-.367-1.5h1.5c0 .39.075.727.226 1.008a2 2 0 0 0 .618.687c.265.183.565.318.898.407.339.083.69.125 1.055.125.526 0 .971-.073 1.336-.22.364-.145.64-.353.828-.624.192-.27.289-.591.289-.961zm6.726 3.031a4.159 4.159 0 0 1-1.601-.297 3.633 3.633 0 0 1-1.227-.851 3.789 3.789 0 0 1-.781-1.297 4.756 4.756 0 0 1-.273-1.64v-.329c0-.687.101-1.3.304-1.836.203-.541.48-1 .828-1.375a3.547 3.547 0 0 1 1.188-.851 3.41 3.41 0 0 1 1.375-.29c.604 0 1.125.105 1.562.313.443.209.805.5 1.086.875.282.37.49.807.625 1.313.136.5.203 1.047.203 1.64v.649h-6.312V19h4.867v-.11a3.603 3.603 0 0 0-.234-1.093 1.967 1.967 0 0 0-.625-.875c-.287-.23-.677-.344-1.172-.344a1.967 1.967 0 0 0-1.617.82c-.198.271-.352.602-.461.993-.11.39-.164.84-.164 1.351v.328c0 .401.054.779.164 1.133.114.35.278.656.492.922.219.266.482.474.789.625.313.151.667.227 1.063.227.51 0 .942-.105 1.296-.313.355-.208.664-.487.93-.836l.875.695c-.182.276-.414.54-.695.79a3.32 3.32 0 0 1-1.04.609c-.406.156-.887.234-1.445.234zm9.961-1.601v-4.352c0-.333-.067-.622-.203-.867a1.329 1.329 0 0 0-.594-.578c-.265-.136-.593-.203-.984-.203a2.31 2.31 0 0 0-.96.187c-.272.125-.485.29-.641.492a1.079 1.079 0 0 0-.227.657h-1.445c0-.302.078-.602.234-.899.156-.297.38-.565.672-.805a3.358 3.358 0 0 1 1.062-.578c.417-.146.88-.218 1.391-.218.615 0 1.156.104 1.625.312.474.209.844.524 1.11.945.27.417.406.94.406 1.57v3.938c0 .282.023.581.07.899.052.317.127.59.227.82V24h-1.508a2.702 2.702 0 0 1-.172-.664 5.35 5.35 0 0 1-.063-.781zm.25-3.68.016 1.016h-1.461c-.412 0-.779.034-1.102.101a2.52 2.52 0 0 0-.812.29c-.219.13-.385.294-.5.491-.115.193-.172.42-.172.68 0 .266.06.508.18.727.12.218.3.393.539.523.245.125.544.188.898.188.443 0 .834-.094 1.172-.282.339-.187.607-.416.805-.687.203-.271.312-.534.328-.79l.617.696c-.036.219-.135.461-.297.727a3.5 3.5 0 0 1-1.602 1.367 3.106 3.106 0 0 1-1.234.234c-.573 0-1.075-.112-1.507-.336a2.578 2.578 0 0 1-1-.898 2.378 2.378 0 0 1-.352-1.274c0-.453.088-.851.266-1.195.177-.349.432-.638.765-.867a3.64 3.64 0 0 1 1.203-.531c.47-.12.993-.18 1.57-.18h1.68zm4.914-2V24H75.79v-8.453h1.406l.04 1.328zm2.641-1.375-.008 1.344a2.081 2.081 0 0 0-.344-.047 3.654 3.654 0 0 0-.359-.016c-.333 0-.627.052-.883.157a1.83 1.83 0 0 0-.648.437 2.106 2.106 0 0 0-.422.672 3.233 3.233 0 0 0-.195.844l-.407.234c0-.51.05-.99.149-1.438.104-.447.263-.843.476-1.187.214-.349.485-.62.813-.813.333-.197.729-.296 1.187-.296.105 0 .224.013.36.039.135.02.229.044.281.07zm4.563 7.469c.343 0 .661-.07.953-.211.291-.14.53-.334.718-.578a1.61 1.61 0 0 0 .32-.852h1.376c-.026.5-.196.966-.508 1.399a3.468 3.468 0 0 1-1.211 1.039c-.5.26-1.05.39-1.648.39-.636 0-1.19-.112-1.665-.336a3.297 3.297 0 0 1-1.171-.922 4.12 4.12 0 0 1-.696-1.343 5.672 5.672 0 0 1-.226-1.617v-.329c0-.567.075-1.104.226-1.609.156-.51.388-.96.696-1.352.312-.39.703-.697 1.171-.921.474-.224 1.03-.336 1.665-.336.661 0 1.24.135 1.734.406.495.265.883.63 1.164 1.094.286.458.443.979.469 1.562H86.43a2.083 2.083 0 0 0-.297-.945 1.852 1.852 0 0 0-.688-.672 1.922 1.922 0 0 0-1.007-.258c-.443 0-.816.089-1.118.266a1.957 1.957 0 0 0-.71.703 3.28 3.28 0 0 0-.376.976c-.072.355-.109.717-.109 1.086v.328c0 .37.037.735.11 1.094.072.36.195.685.367.977.177.291.414.526.71.703.303.172.678.258 1.126.258zM90.874 12v12H89.43V12h1.445zm-.344 7.453-.601-.023a5.084 5.084 0 0 1 .257-1.602c.167-.495.401-.924.704-1.289a3.132 3.132 0 0 1 2.476-1.148c.417 0 .792.057 1.125.171.334.11.617.287.852.532.24.244.422.562.547.953.125.385.187.857.187 1.414V24h-1.453v-5.555c0-.442-.065-.797-.195-1.062-.13-.271-.32-.466-.57-.586-.25-.125-.558-.188-.922-.188-.36 0-.688.076-.985.227-.291.151-.544.36-.758.625-.208.266-.372.57-.492.914a3.34 3.34 0 0 0-.172 1.078z" fill="#8E8E8E"/>
</svg>
